<svg width="220" height="220" viewBox="0 0 220 220" fill="none" xmlns="http://www.w3.org/2000/svg">
<rect width="220" height="220" fill="white"/>
<path d="M104.669 163.544C109.853 163.544 114.095 163.149 117.394 162.361C120.85 161.415 123.599 160.232 125.642 158.813C127.684 157.237 129.098 155.423 129.883 153.373C130.669 151.324 131.061 149.037 131.061 146.515C131.061 141.154 128.548 136.739 123.521 133.27C118.494 129.643 109.853 125.78 97.6 121.681C92.2587 119.788 86.9175 117.66 81.5762 115.295C76.235 112.772 71.4436 109.697 67.202 106.071C62.9604 102.286 59.5043 97.7925 56.8337 92.5892C54.163 87.2282 52.8277 80.7635 52.8277 73.195C52.8277 65.6266 54.2416 58.8465 57.0693 52.8548C59.897 46.7054 63.903 41.5021 69.0871 37.2448C74.2713 32.9876 80.5551 29.7552 87.9386 27.5477C95.3221 25.1826 103.648 24 112.917 24C123.914 24 133.418 25.1826 141.43 27.5477C149.442 29.9129 156.04 32.5145 161.224 35.3527L150.62 64.444C146.064 62.0788 140.958 60.0291 135.303 58.2946C129.805 56.4025 123.128 55.4564 115.273 55.4564C106.476 55.4564 100.114 56.7178 96.1861 59.2407C92.4158 61.6058 90.5307 65.3112 90.5307 70.3568C90.5307 73.3527 91.2376 75.8755 92.6515 77.9253C94.0653 79.9751 96.029 81.8672 98.5426 83.6017C101.213 85.1784 104.198 86.6764 107.497 88.0954C110.953 89.3569 114.723 90.6971 118.808 92.1162C127.291 95.2697 134.675 98.4232 140.958 101.577C147.242 104.573 152.426 108.12 156.511 112.22C160.752 116.32 163.894 121.129 165.937 126.647C167.979 132.166 169 138.867 169 146.751C169 162.046 163.659 173.95 152.976 182.465C142.294 190.822 126.191 195 104.669 195C97.4429 195 90.9234 194.527 85.1109 193.581C79.2983 192.793 74.1142 191.768 69.5584 190.506C65.1597 189.245 61.3109 187.905 58.0119 186.486C54.87 185.066 52.1993 183.726 50 182.465L60.3683 153.137C65.2383 155.817 71.2079 158.261 78.2772 160.469C85.5036 162.519 94.301 163.544 104.669 163.544Z" fill="black"/>
</svg>
